<?xml version="1.0" encoding="UTF-8" standalone="no" ?>
<!DOCTYPE svg PUBLIC "-//W3C//DTD SVG 1.1//EN" "http://www.w3.org/Graphics/SVG/1.1/DTD/svg11.dtd">
<svg xmlns="http://www.w3.org/2000/svg" xmlns:xlink="http://www.w3.org/1999/xlink" version="1.1" width="1280" height="1024" viewBox="0 0 1280 1024" xml:space="preserve">
<desc>Created with Fabric.js 5.3.0</desc>
<defs>
</defs>
<g transform="matrix(1 0 0 1 640 512)" id="background-logo"  >
<rect style="stroke: none; stroke-width: 0; stroke-dasharray: none; stroke-linecap: butt; stroke-dashoffset: 0; stroke-linejoin: miter; stroke-miterlimit: 4; fill: rgb(255,255,255); fill-opacity: 0; fill-rule: nonzero; opacity: 1;"  paint-order="stroke"  x="-640" y="-512" rx="0" ry="0" width="1280" height="1024" />
</g>
<g transform="matrix(1.9211538461538462 0 0 1.9211538461538462 640 378.83531041862193)" id="logo-logo"  >
<g style=""  paint-order="stroke"   >
		<g transform="matrix(0.16687642042807221 0 0 -0.16687642042807221 -19.101427635670007 -47.508819601564795)"  >
<path style="stroke: none; stroke-width: 1; stroke-dasharray: none; stroke-linecap: butt; stroke-dashoffset: 0; stroke-linejoin: miter; stroke-miterlimit: 10; fill: rgb(255,255,255); fill-rule: nonzero; opacity: 1;"  paint-order="stroke"  transform=" translate(-193.73045, -1296.69)" d="M 177.781 1098.72 C 184.48000000000002 1105.42 192.61700000000002 1108.77 202.18800000000002 1108.77 C 211.758 1108.77 219.895 1105.42 226.59400000000002 1098.72 C 233.28900000000002 1092.02 236.64100000000002 1083.88 236.64100000000002 1074.32 C 236.64100000000002 1064.75 233.28900000000002 1056.61 226.59400000000002 1049.9099999999999 C 219.895 1043.2099999999998 211.758 1039.86 202.18800000000002 1039.86 C 192.61700000000002 1039.86 184.48000000000002 1043.2099999999998 177.781 1049.9099999999999 C 171.074 1056.61 167.727 1064.7499999999998 167.727 1074.32 C 167.727 1083.8799999999999 171.074 1092.02 177.781 1098.72 z M 88.6016 1507.5700000000002 C 117.527 1538.2100000000003 151.57 1553.5200000000002 190.703 1553.5200000000002 C 226.863 1553.5200000000002 258.711 1543.3100000000002 286.25 1522.89 C 313.801 1502.48 332.148 1474.93 341.289 1440.2600000000002 L 277.32399999999996 1440.2900000000002 C 264.871 1461.88 262.16799999999995 1465.6000000000001 251.95299999999995 1475.3600000000001 C 235.93799999999993 1490.66 216.01599999999996 1497.3700000000001 193.89499999999995 1497.3700000000001 C 168.80099999999996 1497.3700000000001 147.84399999999994 1487.3600000000001 131.03499999999997 1467.38 C 115.08999999999997 1448.45 107.10899999999997 1426.22 107.10899999999997 1400.7 C 107.10899999999997 1368.3700000000001 121.46499999999996 1342.53 150.18799999999996 1323.17 C 168.89499999999995 1310.41 197.83199999999997 1298.8200000000002 236.96499999999997 1288.39 L 236.96499999999997 1163.02 L 168.04699999999997 1163.02 L 168.04699999999997 1254.26 C 131.24999999999997 1262.97 101.73799999999997 1280.68 79.51169999999996 1307.3799999999999 C 57.292999999999964 1334.07 46.171899999999965 1366.02 46.171899999999965 1403.2399999999998 C 46.171899999999965 1442.5899999999997 60.32419999999996 1477.3799999999999 88.60159999999996 1507.5699999999997" stroke-linecap="round" />
</g>
		<g transform="matrix(0.16687642042807221 0 0 -0.16687642042807221 19.101435979490986 -47.508819601564795)"  >
<path style="stroke: none; stroke-width: 1; stroke-dasharray: none; stroke-linecap: butt; stroke-dashoffset: 0; stroke-linejoin: miter; stroke-miterlimit: 10; fill: rgb(255,255,255); fill-rule: nonzero; opacity: 1;"  paint-order="stroke"  transform=" translate(-422.63649999999996, -1296.69)" d="M 448.633 1074.32 C 448.633 1064.75 445.281 1056.61 438.594 1049.9099999999999 C 431.887 1043.2099999999998 423.75 1039.86 414.18 1039.86 C 404.609 1039.86 396.47700000000003 1043.2099999999998 389.785 1049.9099999999999 C 383.074 1056.61 379.72700000000003 1064.7499999999998 379.72700000000003 1074.32 C 379.72700000000003 1083.8799999999999 383.074 1092.02 389.785 1098.72 C 396.47700000000003 1105.42 404.60900000000004 1108.77 414.18 1108.77 C 423.75 1108.77 431.887 1105.42 438.594 1098.72 C 445.281 1092.02 448.633 1083.88 448.633 1074.32 z M 570.1949999999999 1403.24 C 570.1949999999999 1366.02 559.0699999999999 1334.07 536.8549999999999 1307.38 C 514.6289999999999 1280.68 485.1169999999999 1262.97 448.31999999999994 1254.25 L 448.31999999999994 1163.02 L 379.40199999999993 1163.02 L 379.40199999999993 1288.3899999999999 C 418.5349999999999 1298.82 447.47299999999996 1310.4099999999999 466.1839999999999 1323.1699999999998 C 494.90199999999993 1342.5299999999997 509.2579999999999 1368.37 509.2579999999999 1400.6999999999998 C 509.2579999999999 1426.2199999999998 501.27699999999993 1448.4499999999998 485.33199999999994 1467.3799999999999 C 468.5229999999999 1487.36 447.5659999999999 1497.37 422.47299999999996 1497.37 C 400.359 1497.37 380.42999999999995 1490.6599999999999 364.40199999999993 1475.36 C 354.21099999999996 1465.6 351.4919999999999 1461.8799999999999 339.04299999999995 1440.29 L 275.078 1440.26 C 284.219 1474.93 302.566 1502.48 330.10499999999996 1522.8899999999999 C 357.65599999999995 1543.31 389.51199999999994 1553.52 425.664 1553.52 C 464.805 1553.52 498.84 1538.21 527.766 1507.57 C 556.0469999999999 1477.3799999999999 570.1949999999999 1442.59 570.1949999999999 1403.24" stroke-linecap="round" />
</g>
		<g transform="matrix(0.16687642042807221 0 0 -0.16687642042807221 0.00000417191051838017 9.122496538138279)"  >
<path style="stroke: none; stroke-width: 1; stroke-dasharray: none; stroke-linecap: butt; stroke-dashoffset: 0; stroke-linejoin: miter; stroke-miterlimit: 10; fill: rgb(255,255,255); fill-rule: nonzero; opacity: 1;"  paint-order="stroke"  transform=" translate(-308.1835, -957.363)" d="M 451.211 1002.23 L 466.902 988.57 C 425.859 937.8480000000001 372.734 912.4960000000001 307.512 912.4960000000001 C 243.977 912.4960000000001 191.289 936.3950000000001 149.465 984.1840000000001 L 166.836 997.844 C 209.79700000000003 965.23 257.07800000000003 948.9300000000001 308.69100000000003 948.9300000000001 C 360.867 948.9300000000001 408.367 966.695 451.211 1002.23" stroke-linecap="round" />
</g>
		<g transform="matrix(0.16687642042807221 0 0 -0.16687642042807221 0.0004146920099401541 32.94997257066697)"  >
<path style="stroke: none; stroke-width: 1; stroke-dasharray: none; stroke-linecap: butt; stroke-dashoffset: 0; stroke-linejoin: miter; stroke-miterlimit: 10; fill: rgb(255,255,255); fill-rule: nonzero; opacity: 1;"  paint-order="stroke"  transform=" translate(-308.18600000000004, -814.5920000000001)" d="M 326.809 814.594 C 326.809 809.418 324.988 805.023 321.379 801.398 C 317.754 797.777 313.35900000000004 795.969 308.184 795.969 C 303.00800000000004 795.969 298.613 797.777 294.988 801.398 C 291.379 805.023 289.563 809.418 289.563 814.594 C 289.563 819.758 291.37899999999996 824.1600000000001 294.988 827.777 C 298.613 831.398 303.008 833.215 308.184 833.215 C 313.35900000000004 833.215 317.754 831.398 321.379 827.777 C 324.988 824.1600000000001 326.809 819.758 326.809 814.594" stroke-linecap="round" />
</g>
		<g transform="matrix(0.16687642042807221 0 0 -0.16687642042807221 0.0004146920099401541 50.25209478234029)"  >
<path style="stroke: none; stroke-width: 1; stroke-dasharray: none; stroke-linecap: butt; stroke-dashoffset: 0; stroke-linejoin: miter; stroke-miterlimit: 10; fill: rgb(255,255,255); fill-rule: nonzero; opacity: 1;"  paint-order="stroke"  transform=" translate(-308.18600000000004, -710.9200000000001)" d="M 326.809 710.922 C 326.809 705.7420000000001 324.988 701.352 321.379 697.727 C 317.754 694.105 313.35900000000004 692.297 308.184 692.297 C 303.00800000000004 692.297 298.613 694.105 294.988 697.727 C 291.379 701.352 289.563 705.742 289.563 710.922 C 289.563 716.0980000000001 291.37899999999996 720.488 294.988 724.113 C 298.613 727.7270000000001 303.008 729.543 308.184 729.543 C 313.35900000000004 729.543 317.754 727.727 321.379 724.113 C 324.988 720.488 326.809 716.0980000000001 326.809 710.922" stroke-linecap="round" />
</g>
		<g transform="matrix(0.16687642042807221 0 0 -0.16687642042807221 0.0004146920099401541 69.95945425671499)"  >
<path style="stroke: none; stroke-width: 1; stroke-dasharray: none; stroke-linecap: butt; stroke-dashoffset: 0; stroke-linejoin: miter; stroke-miterlimit: 10; fill: rgb(255,255,255); fill-rule: nonzero; opacity: 1;"  paint-order="stroke"  transform=" translate(-308.18600000000004, -592.836)" d="M 326.809 592.832 C 326.809 587.672 324.988 583.262 321.379 579.648 C 317.754 576.0310000000001 313.35900000000004 574.211 308.184 574.211 C 303.00800000000004 574.211 298.613 576.0310000000001 294.988 579.648 C 291.379 583.2620000000001 289.563 587.672 289.563 592.832 C 289.563 598.012 291.37899999999996 602.398 294.988 606.031 C 298.613 609.6479999999999 303.008 611.4609999999999 308.184 611.4609999999999 C 313.35900000000004 611.4609999999999 317.754 609.6479999999999 321.379 606.031 C 324.988 602.3979999999999 326.809 598.012 326.809 592.832" stroke-linecap="round" />
</g>
		<g transform="matrix(0.16687642042807221 0 0 -0.16687642042807221 0.0004146920099401541 87.26061858815632)"  >
<path style="stroke: none; stroke-width: 1; stroke-dasharray: none; stroke-linecap: butt; stroke-dashoffset: 0; stroke-linejoin: miter; stroke-miterlimit: 10; fill: rgb(255,255,255); fill-rule: nonzero; opacity: 1;"  paint-order="stroke"  transform=" translate(-308.18600000000004, -489.1700000000001)" d="M 326.809 489.172 C 326.809 484 324.988 479.60200000000003 321.379 475.98 C 317.754 472.35900000000004 313.35900000000004 470.55100000000004 308.184 470.55100000000004 C 303.00800000000004 470.55100000000004 298.613 472.35900000000004 294.988 475.98 C 291.379 479.60200000000003 289.563 484 289.563 489.172 C 289.563 494.34000000000003 291.37899999999996 498.738 294.988 502.35900000000004 C 298.613 505.98 303.008 507.78900000000004 308.184 507.78900000000004 C 313.35900000000004 507.78900000000004 317.754 505.98 321.379 502.35900000000004 C 324.988 498.73800000000006 326.809 494.34000000000003 326.809 489.172" stroke-linecap="round" />
</g>
</g>
</g>
<g transform="matrix(1.9211538461538462 0 0 1.9211538461538462 639.3009551532452 608.3419068549084)" id="text-logo"  >
<g style=""  paint-order="stroke"   >
		<g transform="matrix(1 0 0 1 0 0)" id="text-logo-path-0"  >
<path style="stroke: rgb(255,255,255); stroke-width: 0; stroke-dasharray: none; stroke-linecap: butt; stroke-dashoffset: 0; stroke-linejoin: miter; stroke-miterlimit: 4; fill: rgb(255,255,255); fill-rule: nonzero; opacity: 1;"  paint-order="stroke"  transform=" translate(-161.40999999999997, 21.005000000000003)" d="M 1.73 -10.08 L 1.73 -10.08 L 1.73 -12.48 L 6.12 -12.48 L 6.12 -9.84 Q 6.12 -3.84 11.04 -3.84 Q 15.97 -3.84 15.97 -9.84 L 15.97 -9.84 Q 15.97 -11.72 15.19 -13.36 Q 14.41 -15 13.18 -16.26 Q 11.95 -17.52 10.44 -18.74 Q 8.94 -19.95 7.44 -21.25 Q 5.95 -22.56 4.72 -24.01 Q 3.49 -25.46 2.71 -27.5 Q 1.93 -29.53 1.93 -31.93 L 1.93 -31.93 Q 1.93 -36.91 4.26 -39.67 Q 6.59 -42.42 11.22 -42.42 L 11.22 -42.42 Q 15.88 -42.42 18.22 -39.64 Q 20.57 -36.86 20.57 -31.93 L 20.57 -31.93 L 20.57 -30.79 L 16.14 -30.79 L 16.14 -32.17 Q 16.14 -38.17 11.34 -38.17 Q 6.53 -38.17 6.53 -32.23 L 6.53 -32.23 Q 6.53 -30.32 7.31 -28.67 Q 8.09 -27.01 9.33 -25.75 Q 10.58 -24.49 12.08 -23.28 Q 13.59 -22.06 15.1 -20.76 Q 16.61 -19.45 17.86 -18 Q 19.1 -16.55 19.88 -14.52 Q 20.65 -12.48 20.65 -10.08 L 20.65 -10.08 Q 20.65 -5.19 18.25 -2.39 Q 15.85 0.41 11.16 0.41 Q 6.47 0.41 4.1 -2.37 Q 1.73 -5.16 1.73 -10.08 Z M 45.82 -37.73 L 38.09 -37.73 L 38.09 -42.01 L 58.24 -42.01 L 58.24 -37.73 L 50.51 -37.73 L 50.51 0 L 45.82 0 L 45.82 -37.73 Z M 77.29 0 L 72.98 0 L 81.01 -42.01 L 87.8 -42.01 L 95.83 0 L 91.17 0 L 89.53 -8.47 L 78.93 -8.47 L 77.29 0 Z M 84.14 -36.71 L 79.51 -12.48 L 88.89 -12.48 L 84.14 -36.71 Z M 119.18 0 L 114.49 0 L 114.49 -42.01 L 123.84 -42.01 Q 128.7 -42.01 130.96 -39.59 Q 133.21 -37.18 133.21 -32.4 L 133.21 -32.4 L 133.21 -28.97 Q 133.21 -21.97 128 -20.33 L 128 -20.33 Q 130.78 -19.51 132.03 -17.3 Q 133.27 -15.09 133.27 -11.57 L 133.27 -11.57 L 133.27 -5.04 Q 133.27 -1.55 134.12 0 L 134.12 0 L 129.38 0 Q 128.58 -1.82 128.58 -5.1 L 128.58 -5.1 L 128.58 -11.69 Q 128.58 -15.12 127.06 -16.52 Q 125.54 -17.93 122.46 -17.93 L 122.46 -17.93 L 119.18 -17.93 L 119.18 0 Z M 119.18 -37.73 L 119.18 -22.21 L 122.64 -22.21 Q 125.63 -22.21 127.1 -23.45 Q 128.58 -24.7 128.58 -27.95 L 128.58 -27.95 L 128.58 -31.99 Q 128.58 -34.89 127.43 -36.31 Q 126.27 -37.73 123.72 -37.73 L 123.72 -37.73 L 119.18 -37.73 Z M 159.23 -37.73 L 151.49 -37.73 L 151.49 -42.01 L 171.65 -42.01 L 171.65 -37.73 L 163.92 -37.73 L 163.92 0 L 159.23 0 L 159.23 -37.73 Z M 194.56 0 L 189.87 0 L 189.87 -42.01 L 199.04 -42.01 Q 203.85 -42.01 206.16 -39.33 Q 208.48 -36.65 208.48 -31.73 L 208.48 -31.73 L 208.48 -26.69 Q 208.48 -16.55 198.69 -16.55 L 198.69 -16.55 L 194.56 -16.55 L 194.56 0 Z M 194.56 -37.73 L 194.56 -20.77 L 198.69 -20.77 Q 201.36 -20.77 202.6 -22.1 Q 203.85 -23.44 203.85 -26.4 L 203.85 -26.4 L 203.85 -31.99 Q 203.85 -34.92 202.71 -36.33 Q 201.56 -37.73 199.04 -37.73 L 199.04 -37.73 L 194.56 -37.73 Z M 231.97 0 L 227.29 0 L 227.29 -42.01 L 236.63 -42.01 Q 241.49 -42.01 243.75 -39.59 Q 246.01 -37.18 246.01 -32.4 L 246.01 -32.4 L 246.01 -28.97 Q 246.01 -21.97 240.79 -20.33 L 240.79 -20.33 Q 243.57 -19.51 244.82 -17.3 Q 246.06 -15.09 246.06 -11.57 L 246.06 -11.57 L 246.06 -5.04 Q 246.06 -1.55 246.91 0 L 246.91 0 L 242.17 0 Q 241.38 -1.82 241.38 -5.1 L 241.38 -5.1 L 241.38 -11.69 Q 241.38 -15.12 239.85 -16.52 Q 238.33 -17.93 235.25 -17.93 L 235.25 -17.93 L 231.97 -17.93 L 231.97 0 Z M 231.97 -37.73 L 231.97 -22.21 L 235.43 -22.21 Q 238.42 -22.21 239.9 -23.45 Q 241.38 -24.7 241.38 -27.95 L 241.38 -27.95 L 241.38 -31.99 Q 241.38 -34.89 240.22 -36.31 Q 239.06 -37.73 236.51 -37.73 L 236.51 -37.73 L 231.97 -37.73 Z M 283.18 0 L 265.9 0 L 265.9 -42.01 L 283.18 -42.01 L 283.18 -37.73 L 270.59 -37.73 L 270.59 -23.41 L 280.84 -23.41 L 280.84 -19.19 L 270.59 -19.19 L 270.59 -4.25 L 283.18 -4.25 L 283.18 0 Z M 307.18 0 L 302.49 0 L 302.49 -42.01 L 311.66 -42.01 Q 316.46 -42.01 318.78 -39.33 Q 321.09 -36.65 321.09 -31.73 L 321.09 -31.73 L 321.09 -26.69 Q 321.09 -16.55 311.31 -16.55 L 311.31 -16.55 L 307.18 -16.55 L 307.18 0 Z M 307.18 -37.73 L 307.18 -20.77 L 311.31 -20.77 Q 313.97 -20.77 315.22 -22.1 Q 316.46 -23.44 316.46 -26.4 L 316.46 -26.4 L 316.46 -31.99 Q 316.46 -34.92 315.32 -36.33 Q 314.18 -37.73 311.66 -37.73 L 311.66 -37.73 L 307.18 -37.73 Z" stroke-linecap="round" />
</g>
</g>
</g>
</svg>